SANCTUM (2011)(1080P)(DD5.1 DTS)NL SRT SUBS

Alternatieve titel: James Cameron s Sanctum 

[img]http://img685.imageshack.us/img685/7729/posteryr.jpg[/img]

******Now inthe Cinema*******
******Momenteel in de  bioscoop*******

Verenigde Staten / Australië
Actie / Avontuur
108 minuten

geregisseerd door Alister Grierson
met Richard Roxburgh, Alice Parkinson en Rhys Wakefield

Een team van duikers is op expeditie naar de grootste, mooiste en minst toegankelijke grotten op aarde. Door een tropische storm worden ze gedwongen dieper de grotten in te gaan. De ervaren duiker Frank McGuire heeft de Esa-ala grotten in de Zuidelijke Pacific maandenlang onderzocht. Maar wanneer zijn onbekende vluchtweg geblokkeerd is door een vloedgolf wordt Frank s team inclusief zijn zeventienjarige zoon Josh en financier Carl Hurley gedwongen hun plan radicaal te wijzigen. Met slinkende voorraden moeten ze door een onderwater doolhof navigeren om een uitweg te vinden.

 
Storyline:

An underwater cave diving team experiences a life-threatening crisis during an expedition to the unexplored and least accessible cave system in the world. 
A team of divers on an expedition to the largest, most beautiful and least accessible caves on earth. By a tropical storm, they are forced to go deeper into the caves. The experienced diver Frank McGuire, the Esa-ala caves in the South Pacific for months studied. But when his unknown escape route is blocked by a tidal wave is Frank's team included his seventeen year old son Josh and financier Carl Hurley forced to radically change their plan. With declining resources they need to navigate an underwater maze to find a way out.
 




...bron: BluRay
...Beeld: 1080 (1920*1080)
...Container: x264 (MKV)

...Ondertitels: NEDERLANDS
...Audio: ENGLISH DD5.1 & DTS (wij voegen altijd ac3 erbij)


Subtitles.NL.......: Tokke, Heksje en Suurtje (Nice Job !!!)
Controle...........: Suurtje
Bewerking+Resync...: Suurtje en Tokke WELL DONE!!
 

  Category : Video 
  Format : x264HD 
  Source : Retail 
  Subtitle : Dutch subs optional  
  Genre : Action Adventure  
  Language : English audio  
 


  
http://www.moviemeter.nl/film/70098 
http://www.imdb.com/title/tt0881320 
 


***********************************

  TBS

MEDIA INFO

General
Complete name                    : SANCTUM_(2011)_[1080P]___NL_SRT_SUBS___(DD5.1_&_DTS)\Sanctum.2011.NLSUBS.x264.1080p.BluRay.DTS.DD51.1-SRT\Sanctum.2011.NLSUBS.x264.1080p.BluRay.DTS.DD51.1-SRT.mkv
Format                           : Matroska
File size                        : 9.31 GiB
Duration                         : 1h 48mn
Overall bit rate                 : 12.2 Mbps
Encoded date                     : UTC 2011-04-17 06:57:28
Writing application              : mkvmerge v2.3.0 ('Freak U') built on Sep  8 2008 18:32:16
Writing library                  : libebml v0.7.7 + libmatroska v0.8.1

Video
ID                               : 1
Format                           : AVC
Format/Info                      : Advanced Video Codec
Format profile                   : High@L4.0
Format settings, CABAC           : Yes
Format settings, ReFrames        : 4 frames
Format settings, GOP             : M=1, N=6
Muxing mode                      : Container profile=Unknown@4.0
Codec ID                         : V_MPEG4/ISO/AVC
Duration                         : 1h 48mn
Bit rate                         : 10.1 Mbps
Width                            : 1 920 pixels
Height                           : 1 080 pixels
Display aspect ratio             : 16:9
Frame rate                       : 23.976 fps
Color space                      : YUV
Chroma subsampling               : 4:2:0
Bit depth                        : 8 bits
Scan type                        : Progressive
Bits/(Pixel*Frame)               : 0.203
Stream size                      : 7.49 GiB (80%)
Writing library                  : x264 core 114 r1913 5fd3dce
Encoding settings                : cabac=1 / ref=4 / deblock=1:0:0 / analyse=0x3:0x133 / me=hex / subme=9 / psy=1 / psy_rd=1.00:0.00 / mixed_ref=1 / me_range=16 / chroma_me=1 / trellis=1 / 8x8dct=1 / cqm=0 / deadzone=21,11 / fast_pskip=1 / chroma_qp_offset=-2 / threads=3 / sliced_threads=0 / nr=0 / decimate=1 / interlaced=0 / constrained_intra=0 / bframes=3 / b_pyramid=2 / b_adapt=1 / b_bias=0 / direct=1 / weightb=1 / open_gop=0 / weightp=2 / keyint=250 / keyint_min=23 / scenecut=40 / intra_refresh=0 / rc_lookahead=40 / rc=2pass / mbtree=1 / bitrate=10099 / ratetol=1.0 / qcomp=0.60 / qpmin=0 / qpmax=51 / qpstep=4 / cplxblur=20.0 / qblur=0.5 / ip_ratio=1.40 / aq=1:1.00
Language                         : English

Audio #1
ID                               : 2
Format                           : DTS
Format/Info                      : Digital Theater Systems
Codec ID                         : A_DTS
Duration                         : 1h 48mn
Bit rate mode                    : Constant
Bit rate                         : 1 510 Kbps
Channel(s)                       : 6 channels
Channel positions                : Front: L C R, Side: L R, LFE
Sampling rate                    : 48.0 KHz
Bit depth                        : 16 bits
Stream size                      : 1.15 GiB (12%)
Title                            : English DTS
Language                         : English

Audio #2
ID                               : 3
Format                           : AC-3
Format/Info                      : Audio Coding 3
Mode extension                   : CM (complete main)
Codec ID                         : A_AC3
Duration                         : 1h 48mn
Bit rate mode                    : Constant
Bit rate                         : 640 Kbps
Channel(s)                       : 6 channels
Channel positions                : Front: L C R, Side: L R, LFE
Sampling rate                    : 48.0 KHz
Bit depth                        : 16 bits
Stream size                      : 498 MiB (5%)
Title                            : English DD5.1
Language                         : English

Text
ID                               : 4
Format                           : UTF-8
Codec ID                         : S_TEXT/UTF8
Codec ID/Info                    : UTF-8 Plain Text
Title                            : Nederlands SRT
Language                         : Dutch
